name processed_emg_signals												
nRows=144												
nColumns=7												
 												
endheader												
time	RGLTMED	RRF	RADDLONG	RST	RTA	RGM						
1.007	0.407751927	0.044838362	0.040336071	0.04649089	0.045571645	0.181511643						
1.008	0.401228013	0.043522603	0.041322786	0.047468049	0.046891126	0.183275848						
1.009	0.394634076	0.042219171	0.042345342	0.048474683	0.048314881	0.185029845						
1.01	0.387975788	0.040928879	0.043403395	0.049510707	0.049844618	0.186771146						
1.011	0.381258849	0.039652524	0.044496551	0.050575997	0.051481978	0.188497257						
1.012	0.374488976	0.038390886	0.04562436	0.051670389	0.05322853	0.190205679						
1.013	0.3676719	0.037144727	0.046786317	0.052793681	0.05508577	0.191893916						
1.014	0.360813351	0.035914793	0.047981865	0.053945629	0.057055115	0.193559479						
1.015	0.353919052	0.034701813	0.04921039	0.05512595	0.0591379	0.195199886						
1.016	0.346994713	0.033506496	0.050471226	0.056334317	0.061335374	0.196812667						
1.017	0.34004602	0.032329536	0.051763651	0.057570362	0.063648696	0.198395373						
1.018	0.333078629	0.031171609	0.053086892	0.058833674	0.06607893	0.199945572						
1.019	0.326098157	0.030033371	0.05444012	0.060123799	0.068627045	0.201460858						
1.02	0.319110175	0.028915462	0.055822454	0.061440238	0.071293908	0.202938854						
1.021	0.312120201	0.027818505	0.05723296	0.062782451	0.074080281	0.204377215						
1.022	0.305133692	0.026743103	0.058670653	0.064149851	0.076986817	0.205773632						
1.023	0.298156036	0.025689845	0.060134495	0.065541809	0.08001406	0.207125837						
1.024	0.291192549	0.024659298	0.061623401	0.066957649	0.083162437	0.208431605						
1.025	0.284248464	0.023652015	0.063136233	0.068396654	0.086432255	0.20968876						
1.026	0.277328928	0.02266853	0.064671807	0.069858059	0.089823704	0.210895177						
1.027	0.270438994	0.021709362	0.066228891	0.071341059	0.093336845	0.212048784						
1.028	0.263583616	0.020775011	0.067806206	0.0728448	0.096971613	0.21314757						
1.029	0.256767643	0.019865962	0.069402428	0.074368389	0.100727813	0.214189587						
1.03	0.249995814	0.018982681	0.071016191	0.075910887	0.104605116	0.215172951						
1.031	0.243272754	0.018125621	0.072646087	0.077471312	0.108603056	0.216095847						
1.032	0.236602969	0.017295218	0.074290665	0.079048641	0.112721031	0.216956534						
1.033	0.229990839	0.016491891	0.075948437	0.080641808	0.116958295	0.217753346						
1.034	0.223440616	0.015716044	0.077617879	0.082249706	0.121313963	0.218484696						
1.035	0.216956421	0.014968067	0.079297429	0.083871189	0.125787	0.219149077						
1.036	0.21054224	0.014248334	0.080985493	0.085505071	0.13037623	0.219745069						
1.037	0.204201918	0.013557204	0.082680447	0.087150126	0.135080323	0.220271338						
1.038	0.197939159	0.012895022	0.084380636	0.088805093	0.139897802	0.22072664						
1.039	0.191757523	0.012262119	0.086084378	0.090468674	0.144827039	0.221109822						
1.04	0.185660423	0.011658813	0.087789967	0.092139536	0.149866252	0.221419828						
1.041	0.179651121	0.011085405	0.089495673	0.093816313	0.155013507	0.221655697						
1.042	0.17373273	0.010542187	0.091199747	0.095497605	0.160266716	0.221816567						
1.043	0.16790821	0.010029434	0.092900423	0.097181983	0.165623635	0.221901675						
1.044	0.162180365	0.009547409	0.094595919	0.098867989	0.171081867	0.221910362						
1.045	0.156551848	0.009096365	0.09628444	0.100554138	0.17663886	0.22184207						
1.046	0.151025153	0.008676538	0.097964182	0.102238919	0.182291908	0.221696348						
1.047	0.145602619	0.008288155	0.099633333	0.103920796	0.18803815	0.221472848						
1.048	0.140286429	0.007931428	0.101290077	0.105598214	0.193874574	0.221171329						
1.049	0.135078609	0.007606561	0.102932597	0.107269596	0.199798013	0.220791659						
1.05	0.129981031	0.00731374	0.104559076	0.108933349	0.205805152	0.22033381						
1.051	0.124995409	0.007053146	0.106167703	0.110587864	0.211892525	0.219797863						
1.052	0.120123304	0.006824943	0.107756671	0.112231519	0.218056519	0.219184006						
1.053	0.115366124	0.006629285	0.109324186	0.113862681	0.224293373	0.218492535						
1.054	0.110725121	0.006466315	0.110868465	0.115479708	0.230599188	0.217723851						
1.055	0.106201401	0.006336164	0.112387741	0.117080955	0.236969918	0.216878461						
1.056	0.101795918	0.006238952	0.113880268	0.118664769	0.243401385	0.215956977						
1.057	0.097509479	0.006174786	0.115344317	0.120229499	0.249889271	0.214960115						
1.058	0.093342746	0.006143762	0.11677819	0.121773496	0.256429132	0.21388869						
1.059	0.089296237	0.006145966	0.11818021	0.123295112	0.263016391	0.212743621						
1.06	0.085370331	0.006181469	0.119548736	0.124792709	0.26964635	0.211525922						
1.061	0.081565268	0.006250332	0.120882157	0.126264657	0.276314192	0.210236703						
1.062	0.077881152	0.006352605	0.122178901	0.127709339	0.283014984	0.208877171						
1.063	0.074317956	0.006488325	0.123437432	0.129125153	0.289743682	0.207448618						
1.064	0.070875521	0.006657516	0.124656259	0.130510512	0.296495139	0.205952427						
1.065	0.067553564	0.00686019	0.125833933	0.131863852	0.303264104	0.204390067						
1.066	0.064351678	0.007096347	0.126969053	0.133183632	0.310045237	0.202763086						
1.067	0.061269336	0.007365974	0.12806027	0.134468334	0.316833106	0.20107311						
1.068	0.058305894	0.007669044	0.129106286	0.135716469	0.323622197	0.199321842						
1.069	0.055460595	0.008005517	0.130105856	0.13692658	0.330406921	0.197511054						
1.07	0.052732574	0.008375341	0.131057795	0.138097242	0.33718162	0.195642587						
1.071	0.050120859	0.008778447	0.131960978	0.139227066	0.343940573	0.193718343						
1.072	0.047624377	0.009214754	0.132814339	0.1403147	0.350678004	0.191740285						
1.073	0.045241956	0.009684165	0.133616879	0.141358834	0.35738809	0.189710433						
1.074	0.042972328	0.01018657	0.134367663	0.142358197	0.364064968	0.187630856						
1.075	0.040814138	0.010721842	0.135065826	0.143311567	0.370702742	0.185503672						
1.076	0.038765941	0.011289838	0.135710571	0.144217766	0.377295493	0.183331042						
1.077	0.03682621	0.011890401	0.136301172	0.145075665	0.383837287	0.181115166						
1.078	0.034993341	0.012523354	0.136836978	0.145884186	0.390322181	0.178858281						
1.079	0.033265653	0.013188507	0.137317411	0.146642301	0.396744235	0.176562654						
1.08	0.031641394	0.013885649	0.137741968	0.14734904	0.403097519	0.17423058						
1.081	0.030118745	0.014614554	0.138110224	0.148003483	0.409376123	0.171864376						
1.082	0.028695825	0.015374977	0.138421831	0.148604772	0.415574166	0.169466379						
1.083	0.027370692	0.016166652	0.138676518	0.149152104	0.421685803	0.167038941						
1.084	0.026141352	0.016989297	0.138874095	0.149644736	0.427705238	0.164584428						
1.085	0.025005755	0.017842609	0.139014452	0.150081988	0.433626731	0.162105211						
1.086	0.023961808	0.018726263	0.139097555	0.150463238	0.439444609	0.159603666						
1.087	0.023007372	0.019639918	0.139123454	0.15078793	0.445153274	0.157082169						
1.088	0.022140268	0.020583206	0.139092276	0.15105557	0.450747214	0.154543093						
1.089	0.021358282	0.021555743	0.13900423	0.151265729	0.45622101	0.151988806						
1.09	0.020659167	0.022557121	0.138859603	0.151418044	0.46156935	0.149421664						
1.091	0.020040648	0.023586907	0.138658759	0.151512217	0.466787034	0.14684401						
1.092	0.019500425	0.024644649	0.138402143	0.151548016	0.471868985	0.144258171						
1.093	0.019036177	0.025729869	0.138090276	0.151525277	0.476810259	0.141666456						
1.094	0.018645562	0.026842068	0.137723753	0.151443903	0.481606052	0.139071149						
1.095	0.018326227	0.027980721	0.137303248	0.151303863	0.486251712	0.136474511						
1.096	0.018075806	0.02914528	0.136829504	0.151105196	0.490742743	0.133878772						
1.097	0.017891926	0.030335169	0.136303338	0.150848005	0.495074817	0.131286134						
1.098	0.017772207	0.031549792	0.135725638	0.150532463	0.499243782	0.128698764						
1.099	0.01771427	0.032788524	0.13509736	0.150158811	0.503245666	0.126118795						
1.1	0.017715736	0.034050716	0.134419524	0.149727353	0.50707669	0.123548321						
1.101	0.01777423	0.035335692	0.133693217	0.149238464	0.510733268	0.120989394						
1.102	0.017887385	0.036642752	0.132919589	0.148692581	0.514212019	0.118444028						
1.103	0.018052841	0.037971167	0.132099848	0.148090208	0.517509772	0.115914188						
1.104	0.018268255	0.039320184	0.131235261	0.147431915	0.520623569	0.113401795						
1.105	0.018531294	0.040689024	0.130327148	0.146718332	0.52355067	0.110908723						
1.106	0.018839646	0.04207688	0.129376885	0.145950156	0.52628856	0.108436794						
1.107	0.019191017	0.043482918	0.128385896	0.145128141	0.528834952	0.105987781						
1.108	0.019583136	0.044906281	0.127355652	0.144253106	0.531187788	0.103563401						
1.109	0.020013754	0.046346082	0.126287669	0.143325926	0.533345243	0.101165321						
1.11	0.02048065	0.047801411	0.125183507	0.142347535	0.53530573	0.098795149						
1.111	0.020981631	0.04927133	0.124044762	0.141318924	0.537067898	0.096454439						
1.112	0.021514532	0.050754876	0.122873068	0.140241138	0.538630632	0.094144687						
1.113	0.022077222	0.052251062	0.121670091	0.139115276	0.539993059	0.091867329						
1.114	0.022667601	0.053758875	0.120437528	0.137942487	0.541154545	0.089623744						
1.115	0.023283604	0.055277276	0.119177103	0.136723971	0.542114694	0.087415248						
1.116	0.023923204	0.056805205	0.117890566	0.135460977	0.542873347	0.085243099						
1.117	0.024584409	0.058341577	0.116579685	0.134154797	0.543430585	0.083108491						
1.118	0.025265267	0.059885283	0.115246249	0.132806768	0.543786721	0.08101256						
1.119	0.025963865	0.061435194	0.113892062	0.131418269	0.543942304	0.078956377						
1.12	0.026678332	0.062990159	0.112518939	0.129990719	0.543898112	0.076940951						
1.121	0.027406837	0.064549004	0.111128707	0.128525572	0.543655151	0.074967229						
1.122	0.028147594	0.066110539	0.109723197	0.127024319	0.543214651	0.073036096						
1.123	0.028898859	0.067673551	0.108304243	0.125488483	0.542578062	0.071148374						
1.124	0.029658932	0.069236813	0.106873683	0.123919616	0.541747053	0.069304822						
1.125	0.030426158	0.070799078	0.105433348	0.122319298	0.540723503	0.067506138						
1.126	0.031198928	0.072359084	0.103985067	0.120689137	0.539509498	0.065752958						
1.127	0.031975679	0.073915556	0.102530659	0.11903076	0.538107329	0.064045855						
1.128	0.032754893	0.075467202	0.101071935	0.117345817	0.536519481	0.062385342						
1.129	0.0335351	0.077012721	0.099610689	0.115635974	0.534748632	0.060771872						
1.13	0.034314877	0.0785508	0.098148701	0.113902913	0.532797646	0.059205836						
1.131	0.035092847	0.080080117	0.096687731	0.11214833	0.530669567	0.057687568						
1.132	0.035867682	0.08159934	0.095229519	0.11037393	0.52836761	0.056217341						
1.133	0.036638098	0.083107134	0.093775779	0.108581426	0.52589516	0.054795372						
1.134	0.037402863	0.084602155	0.092328201	0.106772536	0.523255761	0.053421821						
1.135	0.038160788	0.086083059	0.090888447	0.104948982	0.52045311	0.05209679						
1.136	0.038910736	0.087548499	0.089458145	0.103112485	0.517491054	0.050820328						
1.137	0.039651613	0.088997127	0.088038893	0.101264765	0.514373576	0.049592428						
1.138	0.040382375	0.0904276	0.086632255	0.099407537	0.511104795	0.048413032						
1.139	0.041102023	0.091838575	0.085239755	0.097542509	0.507688955	0.047282028						
1.14	0.041809606	0.093228716	0.08386288	0.095671381	0.504130418	0.046199254						
1.141	0.042504218	0.094596696	0.082503079	0.09379584	0.500433658	0.045164499						
1.142	0.043185	0.095941195	0.081161754	0.09191756	0.496603252	0.044177503						
1.143	0.043851138	0.097260905	0.079840267	0.090038201	0.492643875	0.043237959						
1.144	0.044501864	0.098554531	0.078539933	0.088159403	0.488560291	0.042345514						
1.145	0.045136455	0.099820795	0.077262022	0.086282787	0.484357347	0.041499771						
1.146	0.045754231	0.101058432	0.076007756	0.084409951	0.480039962	0.040700289						
1.147	0.046354558	0.102266202	0.074778306	0.082542472	0.475613126	0.039946588						
1.148	0.046936842	0.103442882	0.073574794	0.080681899	0.471081887	0.039238144						
1.149	0.047500535	0.104587274	0.072398292	0.078829754	0.466451347	0.038574396						
1.15	0.04804513	0.105698204	0.071249818	0.07698753	0.461726654	0.037954747						
